<svg width="29" height="29" viewBox="0 0 29 29" fill="none" xmlns="http://www.w3.org/2000/svg">
<g clip-path="url(#clip0)">
<path d="M28.5957 21.5703L28.5098 0.515625C28.5098 0.34375 28.4597 0.214844 28.3594 0.128906C28.2591 0.0429689 28.1374 0 27.9942 0H6.91797C6.76042 0 6.63152 0.0465498 6.53126 0.139648C6.431 0.232747 6.38086 0.350911 6.38086 0.494141C6.38086 0.63737 6.431 0.748372 6.53126 0.827148C6.63152 0.905924 6.76042 0.945312 6.91797 0.945312H18.4551L26.9629 0.859375L23.6758 4.10352L0.171875 27.6289C0.0572917 27.7435 0 27.8652 0 27.9941C0 28.0944 0.0214844 28.1803 0.0644531 28.252C0.107422 28.3236 0.168294 28.3844 0.24707 28.4346C0.325846 28.4847 0.408202 28.5098 0.49414 28.5098C0.637369 28.5098 0.766276 28.4525 0.880859 28.3379L24.3848 4.8125L27.5644 1.56836L27.543 7.88477V21.5489C27.543 21.7207 27.5895 21.8532 27.6826 21.9463C27.7757 22.0394 27.901 22.086 28.0586 22.086C28.2305 22.086 28.363 22.0358 28.4561 21.9356C28.5491 21.8353 28.5957 21.7136 28.5957 21.5704L28.5957 21.5703Z" fill="white"/>
</g>
<defs>
<clipPath id="clip0">
<rect width="28.5957" height="28.5098" fill="white"/>
</clipPath>
</defs>
</svg>
