<svg width="291" height="72" viewBox="0 0 291 72" fill="none" xmlns="http://www.w3.org/2000/svg">
<path d="M67.688 8.36335C69.9252 8.36335 71.7388 6.54974 71.7388 4.31254C71.7388 2.07533 69.9252 0.261719 67.688 0.261719C65.4508 0.261719 63.6372 2.07533 63.6372 4.31254C63.6372 6.54974 65.4508 8.36335 67.688 8.36335Z" fill="#2B2B2B"/>
<path d="M27.7677 72.0002C43.1034 72.0002 55.5354 59.5682 55.5354 44.2325C55.5354 28.8969 43.1034 16.4648 27.7677 16.4648C12.432 16.4648 0 28.8969 0 44.2325C0 59.5682 12.432 72.0002 27.7677 72.0002Z" fill="#2B2B2B"/>
<path d="M29.1136 33.583L21.0381 46.9768H26.4218V55.0131L34.4972 41.6193H29.1136V33.583Z" fill="#F2F2F2"/>
<path d="M65.4662 29.532C69.0746 29.532 71.9998 26.6068 71.9998 22.9984C71.9998 19.39 69.0746 16.4648 65.4662 16.4648C61.8578 16.4648 58.9326 19.39 58.9326 22.9984C58.9326 26.6068 61.8578 29.532 65.4662 29.532Z" fill="#2B2B2B"/>
<path d="M49.0023 13.0672C52.6107 13.0672 55.5359 10.142 55.5359 6.53358C55.5359 2.92518 52.6107 0 49.0023 0C45.3939 0 42.4688 2.92518 42.4688 6.53358C42.4688 10.142 45.3939 13.0672 49.0023 13.0672Z" fill="#2B2B2B"/>
<path d="M88.8419 53.861C88.8419 44.8867 75.5905 46.9871 75.5905 42.3281C75.5905 40.6478 76.7743 39.8459 78.3401 39.8841C80.0967 39.9223 81.3188 40.9533 81.4333 42.6718H88.4982C88.2308 37.5546 84.2974 34.6523 78.4546 34.6523C72.841 34.6523 68.6784 37.4782 68.6784 42.5573C68.6021 52.0661 82.0061 49.393 82.0061 54.3574C82.0061 55.9232 80.7841 56.8779 78.8747 56.8779C77.0417 56.8779 75.7433 55.885 75.5523 53.8228H68.6021C68.793 59.2455 73.2992 62.1097 79.0656 62.1097C85.3285 62.1097 88.8419 58.3672 88.8419 53.861Z" fill="#2B2B2B"/>
<path d="M113.902 40.5333H107.372V52.1043C107.372 55.0066 105.768 56.6105 103.248 56.6105C100.804 56.6105 99.1616 55.0066 99.1616 52.1043V40.5333H92.6696V52.9827C92.6696 58.6727 95.992 62.0715 100.918 62.0715C103.782 62.0715 106.074 60.7731 107.372 58.94V61.8423H113.902V40.5333Z" fill="#2B2B2B"/>
<path d="M125.123 43.5502V40.5333H118.593V72.0004H125.123V58.8637C126.307 60.6585 128.56 62.1479 131.692 62.1479C136.923 62.1479 141.086 57.8708 141.086 51.1496C141.086 44.4285 136.923 40.2278 131.692 40.2278C128.56 40.2278 126.307 41.6789 125.123 43.5502ZM134.441 51.1496C134.441 54.5484 132.226 56.4578 129.744 56.4578C127.3 56.4578 125.085 54.5866 125.085 51.1878C125.085 47.7891 127.3 45.9178 129.744 45.9178C132.226 45.9178 134.441 47.7509 134.441 51.1496Z" fill="#2B2B2B"/>
<path d="M153.906 45.4596C156.083 45.4596 157.916 46.7962 157.916 49.1256H149.744C150.125 46.758 151.768 45.4596 153.906 45.4596ZM164.102 54.7775H157.152C156.617 55.9232 155.586 56.8397 153.753 56.8397C151.653 56.8397 149.934 55.5413 149.705 52.7535H164.484C164.561 52.1043 164.599 51.4551 164.599 50.8441C164.599 44.3521 160.207 40.2278 153.982 40.2278C147.643 40.2278 143.213 44.4285 143.213 51.1878C143.213 57.9471 147.72 62.1479 153.982 62.1479C159.291 62.1479 163.071 58.94 164.102 54.7775Z" fill="#2B2B2B"/>
<path d="M174.574 51.9516C174.574 48.2855 176.369 47.2162 179.462 47.2162H181.257V40.3041C178.393 40.3041 176.063 41.8317 174.574 44.0848V40.5333H168.044V61.8423H174.574V51.9516Z" fill="#2B2B2B"/>
<path d="M200.074 54.3574C200.074 57.2598 198.011 58.9782 194.575 58.9782H188.426V49.5839H194.46C197.859 49.5839 200.074 51.4169 200.074 54.3574ZM199.386 42.4045C199.386 45.1159 197.515 46.7198 194.269 46.7198H188.426V38.0892H194.193C197.591 38.0892 199.386 39.7695 199.386 42.4045ZM203.549 54.7011C203.549 51.4169 201.181 48.6292 198.279 48.1327C200.837 47.2926 202.938 45.345 202.938 41.9844C202.938 38.2802 200.112 35.2251 194.498 35.2251H184.951V61.8423H194.88C200.379 61.8423 203.549 58.7109 203.549 54.7011Z" fill="#2B2B2B"/>
<path d="M228.229 51.3406C228.229 44.734 223.608 40.5715 217.651 40.5715C211.732 40.5715 207.073 44.734 207.073 51.3406C207.073 57.9853 211.579 62.186 217.498 62.186C223.456 62.186 228.229 57.9853 228.229 51.3406ZM210.624 51.3406C210.624 46.0706 213.947 43.5883 217.613 43.5883C221.202 43.5883 224.678 46.0706 224.678 51.3406C224.678 56.6487 221.126 59.131 217.498 59.131C213.87 59.131 210.624 56.6487 210.624 51.3406Z" fill="#2B2B2B"/>
<path d="M232.798 61.8423H236.273V33.583H232.798V61.8423Z" fill="#2B2B2B"/>
<path d="M242.96 56.1141C242.96 60.3148 245.06 61.8423 248.765 61.8423H251.896V58.9018H249.337C247.199 58.9018 246.435 58.1763 246.435 56.1141V43.7793H251.896V40.9152H246.435V35.6452H242.96V40.9152H240.249V43.7793H242.96V56.1141Z" fill="#2B2B2B"/>
<path d="M265.004 43.512C268.594 43.512 271.649 45.7651 271.611 49.8512H258.398C258.78 45.7651 261.606 43.512 265.004 43.512ZM274.781 55.3885H271.038C270.274 57.6416 268.289 59.2455 265.157 59.2455C261.606 59.2455 258.627 56.9161 258.36 52.6772H275.086C275.163 51.9516 275.201 51.3406 275.201 50.5768C275.201 44.8486 271.229 40.5715 265.157 40.5715C259.047 40.5715 254.808 44.734 254.808 51.3406C254.808 57.9853 259.2 62.186 265.157 62.186C270.351 62.186 273.711 59.2074 274.781 55.3885Z" fill="#2B2B2B"/>
<path d="M283.263 50.4622C283.263 45.6123 285.783 44.123 289.106 44.123H290.022V40.5333C286.7 40.5333 284.447 41.9844 283.263 44.3139V40.9152H279.788V61.8423H283.263V50.4622Z" fill="#2B2B2B"/>
</svg>
